<?xml version="1.0" encoding="utf-8"?>
<!-- Generator: Adobe Illustrator 28.0.0, SVG Export Plug-In . SVG Version: 6.00 Build 0)  -->
<svg version="1.1" id="Layer_1" xmlns="http://www.w3.org/2000/svg" xmlns:xlink="http://www.w3.org/1999/xlink" x="0px" y="0px"
	 viewBox="0 0 283.5 85" style="enable-background:new 0 0 283.5 85;" xml:space="preserve">
<style type="text/css">
	.st0{fill:#082442;}
	.st1{fill:#2F53A5;}
	.st2{fill:#7189C5;}
</style>
<path class="st0" d="M106.9,42.9h6.9c3.7,0,6.3,2,6.3,6.4c0,4.4-2.4,6.5-6.5,6.5h-1.9V64h-4.8V42.9z M111.7,52h1.3
	c1.7,0,2.3-0.8,2.3-2.8c0-2-0.8-2.7-2.2-2.7h-1.4V52z"/>
<path class="st0" d="M126.8,41.9V49c0.6-1,1.7-1.7,3.6-1.7c2.9,0,4,1.9,4,5V64h-4.8V53.1c0-1.2-0.2-2-1.4-2c-1.2,0-1.5,0.9-1.5,2.5
	V64H122V41.9H126.8z"/>
<path class="st0" d="M149.7,58.8c0,2.7,0,4.3,0,5.2h-4.5c-0.1-0.5-0.2-1.2-0.2-1.7c-0.8,1.4-2,1.9-3.6,1.9c-2.4,0-4-1.2-4-4.9V47.5
	h4.8v11c0,1.3,0.3,2,1.3,2c1.1,0,1.6-0.6,1.6-2.5V47.5h4.8V58.8z M149.3,41.7l-4.2,4.2h-3.9l2.9-4.2H149.3z"/>
<path class="st0" d="M171.8,53.3c0,7.7-2.1,11.1-7.4,11.1c-4.9,0-7.1-3.4-7.1-11.2c0-7.5,2.4-10.7,7.3-10.7
	C169.7,42.5,171.8,45.9,171.8,53.3z M162.5,53.2c0,5.2,0.5,7.4,2.1,7.4c1.8,0,2.2-2,2.2-7.4c0-5-0.4-6.9-2.2-6.9
	C162.9,46.3,162.5,48.3,162.5,53.2z M170,61.2l3.4,2.4l-2.4,3.1l-4.6-3.2L170,61.2z"/>
<path class="st0" d="M186.7,58.8c0,2.7,0,4.3,0,5.2h-4.5c-0.1-0.5-0.2-1.2-0.2-1.7c-0.8,1.4-2,1.9-3.6,1.9c-2.4,0-4-1.2-4-4.9V47.5
	h4.8v11c0,1.3,0.3,2,1.3,2c1.1,0,1.6-0.6,1.6-2.5V47.5h4.8V58.8z"/>
<path class="st0" d="M201.9,55.6c0,6.5-2.6,8.7-6.6,8.7c-3.9,0-6.4-2.1-6.4-8.6c0-6.2,2.8-8.4,6.6-8.4
	C199.4,47.3,201.9,49.6,201.9,55.6z M197.8,41.9l2.7,4.1h-4l-1.2-1.9l-1.1,1.9h-4l2.7-4.1H197.8z M193.7,55.6c0,3.5,0.3,5,1.7,5
	c1.3,0,1.6-1.4,1.6-4.9c0-3.6-0.4-4.7-1.6-4.7C194.2,51,193.7,52.1,193.7,55.6z"/>
<path class="st0" d="M216.1,58.1c-0.1,2.3-0.9,6.1-6.2,6.1c-5,0-6.2-3.7-6.2-8.6c0-5,1.8-8.4,6.5-8.4c5.4,0,5.9,4.2,5.9,6h-4.7
	c0-1.2-0.1-2.4-1.3-2.4c-1.1,0-1.6,1.2-1.6,4.8c0,3.7,0.3,5,1.5,5c1.2,0,1.4-1.2,1.5-2.5H216.1z"/>
<path class="st1" d="M79.4,62.8c4.3-2.9,8.5-5.7,12.8-8.6c3.9,5.9,8.3,10.3,12.6,13.7c40.1,31.6,108.7-2.1,114.8-5.2
	c-12.7,6.6-70.6,35.3-115.1,9.4c-4.3-2.5-8.6-5.6-12.9-9.5c-5.3,3.8-10.7,7.5-16,11.3L79.4,62.8z"/>
<path class="st2" d="M50.7,31.3l11.8,0.3l9.1,6.9c4.2,3.3,8.4,6.5,12.6,9.8c-1.6,4.8-3.2,9.6-4.8,14.5L75.6,74
	c-3.3,2.3-6.5,4.6-9.7,6.9c3.4-10.1,6.7-20.1,10.1-30.2L50.7,31.3z"/>
<path class="st1" d="M82.5,32.1L93.2,2.1l3.4,11.3l-3.9,10.7c-1.8,4.9-3.6,9.9-5.3,14.8c-5.2-0.1-10.5-0.3-15.7-0.4l-9.1-6.9
	L82.5,32.1z"/>
<path class="st2" d="M96.5,13.4l5.7,19.2c62.7,0.5,78,0.8,78,1c0,0.3-22.9-0.2-54.6,2.4c-11.6,1-21.3,2.1-28.3,3
	c-1.6-5-3.1-9.9-4.7-14.9L96.5,13.4z"/>
<path class="st0" d="M113.1,16.9h3.6v12.3h-3.6V16.9z M113.1,12.7h3.6v2.9h-3.6V12.7z"/>
<path class="st0" d="M121.9,24c0,1.6,0.2,2.8,1.3,2.8c1,0,1.1-0.8,1.2-1.4h3.4c-0.1,0.8-0.5,4.1-4.7,4.1c-4.1,0-4.8-3.1-4.8-6.5
	c0-4.2,1.7-6.3,4.8-6.3c3.6,0,4.7,2.5,4.7,5.9c0,0.4,0,1.1,0,1.3H121.9z M125,12.7l2,3.1h-3l-0.9-1.5l-0.9,1.5h-3l2.1-3.1H125z
	 M124.4,21.7c0-1.2-0.1-2.3-1.2-2.3c-1.1,0-1.2,1.2-1.2,2.3H124.4z"/>
<path class="st0" d="M138.5,24.9c0,1.7-0.7,4.6-4.6,4.6c-3.8,0-4.6-2.8-4.6-6.5c0-3.7,1.4-6.3,4.8-6.3c4.1,0,4.4,3.2,4.4,4.5H135
	c0-0.9-0.1-1.8-1-1.8c-0.9,0-1.2,0.9-1.2,3.6c0,2.8,0.2,3.8,1.1,3.8c0.9,0,1-0.9,1.1-1.9H138.5z"/>
<path class="st0" d="M144.2,13.4h3.6v12.9h5l-0.3,3h-8.3V13.4z"/>
<path class="st0" d="M163.1,26.2c0,0.8,0.1,2.4,0.1,3h-3.2c-0.1-0.3-0.1-0.8-0.1-1.1c-0.6,0.8-1.5,1.3-2.8,1.3
	c-2.2,0-3.3-1.7-3.3-3.8c0-2.7,1.8-4,4.8-4c0.4,0,0.7,0,1,0v-1.2c0-0.7-0.1-1.2-1-1.2c-0.8,0-1,0.5-1,1.4h-3.4
	c0-2.2,1.1-3.9,4.5-3.9c2.9,0,4.3,1.2,4.3,3.7V26.2z M158.3,12.6l2.1,3.2h-2.9l-3.2-3.2H158.3z M159.6,23.9c-0.2,0-0.4,0-0.7,0
	c-1.2,0-1.6,0.7-1.6,1.5c0,0.7,0.3,1.3,1.1,1.3c1.1,0,1.2-0.8,1.2-2.2V23.9z"/>
<path class="st0" d="M165.2,20.8c0-2.4,0-3.3,0-3.8h3.4c0,0.2,0.1,0.8,0.1,1.1c0.6-0.9,1.5-1.3,2.6-1.3c1.4,0,2.1,0.7,2.5,1.5
	c0.5-0.8,1.4-1.5,3-1.5c1.9,0,3.1,1.2,3.1,3.7v8.8h-3.5v-8.4c0-0.7-0.2-1.3-0.9-1.3c-0.8,0-1.1,0.6-1.1,1.8v7.9h-3.5v-8.4
	c0-0.9-0.3-1.3-1-1.3c-0.8,0-1.1,0.5-1.1,1.8v7.9h-3.5V20.8z"/>
<path class="st0" d="M104,29.6l-3.4-15.8h3.9l1,6.2c0.3,2,0.6,4.2,0.8,6.1h0.1c0.2-1.9,0.6-4,0.9-6l1-6.2h3.8l-3.5,15.8H104z"/>
<polygon class="st0" points="201.1,45 205.1,45 209.2,40.7 204,40.7 "/>
<rect x="122" y="30.3" class="st0" width="2.3" height="1.9"/>
</svg>
